PathFileType	4	(X/Y/Z)	C:/Users/opensim2020/Desktop/walking_exp_matlab/subject01_walking10_straight_04.trc	
DataRate	CameraRate	NumFrames	NumMarkers	Units	OrigDataRate	OrigDataStartFrame	OrigNumFrames	
100.00	100.00	4	43	mm	100.00	3959	274	
Frame#	Time	LFHD			RFHD			LBHD			RBHD			C7			T10			CLAV			STRN			RBAK			LSHO			LUPA			LELB			LFRM			LWRA			LWRB			LFIN			RSHO			RUPA			RELB			RFRM			RWRA			RWRB			RFIN			LASI			RASI			LPSI			RPSI			LTHI			LKNE			LTIB			LANK			LHEE			LTOE			RTHI			RKNE			RTIB			RANK			RHEE			RTOE			*39			*40			*41			*42			
		X1	Y1	Z1	X2	Y2	Z2	X3	Y3	Z3	X4	Y4	Z4	X5	Y5	Z5	X6	Y6	Z6	X7	Y7	Z7	X8	Y8	Z8	X9	Y9	Z9	X10	Y10	Z10	X11	Y11	Z11	X12	Y12	Z12	X13	Y13	Z13	X14	Y14	Z14	X15	Y15	Z15	X16	Y16	Z16	X17	Y17	Z17	X18	Y18	Z18	X19	Y19	Z19	X20	Y20	Z20	X21	Y21	Z21	X22	Y22	Z22	X23	Y23	Z23	X24	Y24	Z24	X25	Y25	Z25	X26	Y26	Z26	X27	Y27	Z27	X28	Y28	Z28	X29	Y29	Z29	X30	Y30	Z30	X31	Y31	Z31	X32	Y32	Z32	X33	Y33	Z33	X34	Y34	Z34	X35	Y35	Z35	X36	Y36	Z36	X37	Y37	Z37	X38	Y38	Z38	X39	Y39	Z39	X40	Y40	Z40	X41	Y41	Z41	X42	Y42	Z42	X43	Y43	Z43	

138	1.370	-965.76678	116.64855	1677.39990	-1072.74951	76.01961	1687.34229	-1005.27405	229.30110	1640.65186	-1118.96448	189.93369	1651.14246	-1048.45386	257.46948	1434.71191	-1066.07544	285.97107	1145.75708	-1047.07996	110.71393	1376.56787	-1050.27051	64.32388	1221.29443	-1135.03381	303.52707	1245.29382	-886.29089	175.78033	1397.41357	-807.81396	188.65739	1208.56299	-809.39563	186.56168	1057.58301	-784.36029	135.02798	956.24786	-802.48090	42.78143	851.86633	-777.59869	95.98188	840.37897	-768.72974	39.86731	776.99164	-1199.38831	170.87714	1408.37146	-1306.21655	227.91609	1211.08337	-1313.41992	227.23978	1087.36108	-1350.52905	202.95604	971.75494	-1339.91125	124.09879	852.11353	-1378.05273	168.71272	856.58405	-1379.22998	134.99750	775.73462	-964.09369	113.40914	938.42133	-1180.93103	119.11921	939.95087	-1013.90405	300.41479	952.61115	-1159.56372	301.17798	952.82410	-915.75012	133.67758	606.89691	-936.08142	139.36371	472.04688	-936.78601	192.16075	287.46921	-1000.58453	208.00063	71.34843	-1058.18408	246.71304	42.28538	-986.98181	59.63201	36.28722	-1253.27136	114.09518	610.70117	-1238.13965	85.27081	455.88562	-1236.30261	218.05800	340.45557	-1186.69470	344.61603	176.94771	-1129.29419	399.33615	166.90590	-1194.79321	255.03624	65.58894	-1051.04309	91.29977	1720.48059	-3101.94995	1973.11633	1023.46252	-3140.72070	2012.49548	1022.02100			 
139	1.380	-964.85016	109.42741	1677.60437	-1071.99207	68.80281	1687.43616	-1003.82806	222.52841	1641.11096	-1118.08569	182.85287	1651.50867	-1047.60632	250.68733	1435.06116	-1064.96875	279.78922	1146.28174	-1046.04980	103.94222	1376.91394	-1049.23450	57.86434	1221.53796	-1134.08630	297.10031	1246.00256	-885.37860	169.12070	1398.21777	-806.42474	180.87396	1209.52319	-807.67224	177.09579	1058.64905	-782.40405	124.09369	957.99115	-800.05078	30.23892	855.14661	-775.54840	83.48130	842.78870	-766.15601	26.30174	780.30426	-1198.29285	164.03859	1408.66467	-1304.89795	221.87772	1211.56140	-1312.13574	221.77870	1087.79895	-1349.22327	197.81004	972.07117	-1338.62195	119.10589	852.36176	-1376.41821	163.95230	856.82861	-1377.87720	130.16888	776.09113	-963.10175	107.78931	938.61914	-1179.58325	113.08723	940.75360	-1013.41455	294.70636	952.87781	-1159.14404	295.02176	953.31549	-915.15668	130.50299	606.66864	-935.51483	137.37498	471.88629	-936.46497	190.72113	287.50198	-1000.51288	208.06413	71.35155	-1058.12000	246.68486	42.50687	-986.90570	59.58107	36.22068	-1252.18103	104.23741	612.28949	-1236.05188	73.32188	457.84775	-1234.71960	202.32378	337.63742	-1185.18372	324.73831	171.05569	-1127.92078	379.31805	159.11530	-1193.17688	230.70811	63.49889	-1050.24402	84.00114	1720.65906	-3101.87280	1973.17285	1023.54108	-3140.67114	2012.46509	1021.98297			 
140	1.390	-964.05554	102.31944	1677.88806	-1071.09961	61.60701	1687.50684	-1003.04279	215.60980	1641.54138	-1117.23254	175.73764	1651.81213	-1046.74194	243.85776	1435.45020	-1063.83545	273.69919	1146.77466	-1045.11951	97.20476	1377.22095	-1048.23962	51.41968	1221.74927	-1133.23987	290.60876	1246.68518	-884.47797	162.48672	1398.90198	-805.06439	173.23840	1210.48474	-805.92499	167.82083	1059.53040	-780.51611	113.47292	959.70660	-797.72217	17.47644	858.36768	-773.66193	71.03286	845.09888	-763.48090	12.89929	783.86121	-1197.41370	157.04872	1408.90759	-1303.93640	215.62854	1212.06335	-1311.00916	216.16225	1088.26331	-1347.76233	192.27538	972.26581	-1337.23401	113.90255	852.60297	-1375.15393	158.62996	857.00256	-1376.40710	125.04797	776.15424	-962.10345	102.22173	938.78271	-1178.47290	107.07320	941.48962	-1012.90082	288.97650	953.08392	-1158.68982	288.92041	953.68591	-914.63373	127.38480	606.37860	-935.00897	135.25916	471.60571	-936.09192	189.38040	287.47467	-1000.39923	207.93068	71.40293	-1058.41614	246.34895	42.52125	-986.81244	59.55385	36.08876	-1250.82483	94.87594	613.64905	-1233.57214	61.58182	459.18497	-1232.95569	186.41943	334.45944	-1183.68933	304.33212	164.72795	-1126.55200	358.76520	150.69447	-1191.41467	205.90762	61.29551	-1049.41797	76.79174	1720.77747	-3101.95703	1973.03101	1023.68237	-3140.70190	2012.50549	1022.01062			 
141	1.400	-963.39606	95.07343	1678.01025	-1070.47632	54.50290	1687.58569	-1002.21893	208.66499	1641.84387	-1116.55981	168.69389	1652.02271	-1045.93457	237.01677	1435.76733	-1062.77380	267.60638	1147.27783	-1044.27246	90.37829	1377.41187	-1047.26831	44.96877	1221.82837	-1132.39075	284.14493	1247.30042	-883.63934	155.76408	1399.53394	-803.66974	165.71448	1211.34302	-804.36169	158.76018	1060.36108	-778.70764	102.90980	961.30786	-795.32983	5.52639	861.56104	-771.52832	58.64207	847.39734	-761.22638	-0.32845	787.03552	-1196.55078	150.13974	1409.17554	-1303.22522	209.24580	1212.57886	-1309.97766	210.46445	1088.68494	-1346.72681	186.99075	972.60718	-1336.02478	108.64740	852.78156	-1373.80127	153.36392	857.15833	-1374.86670	119.90238	776.28949	-961.26056	96.62728	938.98138	-1177.39136	101.11778	942.08868	-1012.43573	283.20065	953.17999	-1158.27222	282.88782	953.97333	-914.06281	124.30982	606.15753	-934.45715	133.31651	471.49570	-935.70129	188.42030	287.49042	-1000.17810	207.84274	71.56814	-1058.40076	246.26814	42.72422	-986.71832	59.48137	36.02979	-1249.34888	85.67860	614.88019	-1231.45020	50.04923	460.59543	-1231.37769	170.57841	331.31747	-1182.08313	283.30414	157.97792	-1125.40295	337.66016	142.29126	-1189.74304	180.76627	59.02333	-1048.74670	69.57829	1720.90723	-3102.00952	1973.04736	1023.58832	-3140.67065	2012.52197	1021.92969			 
